<?xml version="1.0" encoding="utf-8"?>
<!-- Generator: Adobe Illustrator 25.2.0, SVG Export Plug-In . SVG Version: 6.00 Build 0)  -->
<svg version="1.1" id="Camada_1" xmlns="http://www.w3.org/2000/svg" xmlns:xlink="http://www.w3.org/1999/xlink" x="0px" y="0px"
	 viewBox="0 0 2003 233" style="enable-background:new 0 0 2003 233;" xml:space="preserve">
<style type="text/css">
	.st0{fill:#00376B;}
</style>
<path id="Caminho_11" class="st0" d="M155.27,65.88l-22.98,107.76h81.69l3.54-20.66c-18.03,0.43-25.25,0.96-49.83,0.49l5.97-26.56
	h45.87l4.09-19.42h-45.79l4.49-21.61h48.56l4.35-20.01L155.27,65.88z M565.51,55.81l-25.2,117.88h30.25
	c7.02-32.51,14.27-62.17,19.99-94.95h0.1l4.22,94.95h31.68l45.87-96.23h-0.32c-8.7,32.09-14.45,63.71-21.24,96.23h30.44
	l25.45-117.88h-52.01l-27.3,59.43c-2.13,4.65-4.04,8.94-5.6,12.89c-1.57,3.96-2.9,7.7-3.94,11.23c0.17-2.9,0.28-5.57,0.38-7.97
	c0.09-2.4,0.14-4.48,0.14-6.32c0-2.17,0-3.93-0.06-5.35c-0.06-1.42-0.06-2.75-0.12-4.02l-2.58-59.89L565.51,55.81z M425.1,65.88
	l-4.35,20.78h26.69l-18.51,86.98h33.1l18.51-86.98h26.15l4.48-20.78H425.1z M831.25,58.27l-0.14,0.38l0.14,0.04l0,0l0,0l-0.54,1.12
	L824,79.38c-17.48-4.77-35.93-4.67-53.37,0.28c-34.56,12.46-39.72,64.62,2.55,70.53c5.31,0.54,10.66,0.75,16,0.64l5.23-24.32h-19.43
	l0,0l0,0l4.59-20.5c11.28-0.12,16.16,0.07,48.21-0.58c-4.81,22.47-8.25,42.44-13.05,64.9c-2.18,0.72-4.41,1.37-6.7,1.96l-0.06,0.28
	c-10.51,2.53-21.3,3.72-32.12,3.57h-1.71c-4.89,0.02-9.77-0.34-14.6-1.09c-11.45-1.23-22.55-4.75-32.62-10.34
	c-32.69-18.71-28.09-62.33-4.95-86.88c15.67-16.63,39.14-24.19,65.06-24.82h0.53c1.49-0.04,3.02-0.07,4.57-0.07
	c6.83-0.01,13.66,0.48,20.42,1.45c3.38,0.48,6.71,1.12,9.99,1.91c2.93,0.6,5.83,1.29,8.7,2.04 M335.13,65.93L312.14,173.7h81.69
	l3.54-20.66c-18.04,0.43-25.25,0.96-49.83,0.49l5.97-26.56h45.87l4.09-19.42h-45.79l4.48-21.61h48.56l4.35-20.01L335.13,65.93z
	 M148.49,44.05l-8.29,24.13c-19.83-5.44-40.78-5.33-60.55,0.31c-39.49,14.24-45.39,73.86,2.9,80.61
	c15.64,2.25,31.59,0.36,46.27-5.48l-6.94,31.03c-27.82,7.05-68.73,5.53-94.12-8.99c-37.36-21.37-32.1-71.24-5.67-99.3
	c28.15-29.87,81.96-34.13,126.37-22.32 M501.39,115.8h31.33l-4.25,19.57h-31.33L501.39,115.8z M246.64,65.93h77.42l-4.35,20.01
	h-44.88l-4.76,23.3h42.97l-4.24,20.17h-43.13l-9.26,44.29h-32.77L246.64,65.93z"/>
<g>
	<path class="st0" d="M1659.96,77.41c-4.91-4.3-10.94-6.45-18.1-6.45h-32.9v47.45h32.74c7.38,0,13.5-2.12,18.35-6.37
		c4.85-4.24,7.27-10,7.27-17.28S1664.86,81.71,1659.96,77.41z"/>
	<path class="st0" d="M1886.5,1h-881C941.71,1,890,52.71,890,116.5v0c0,63.79,51.71,115.5,115.5,115.5h881
		c63.79,0,115.5-51.71,115.5-115.5v0C2002,52.71,1950.29,1,1886.5,1z M1521.82,27.15h14.71l-15.21,20.34h-14.71L1521.82,27.15z
		 M1161.56,172.64h-15.87V84.85c0-4.41-1.52-8.18-4.55-11.33c-3.03-3.14-6.7-4.71-11-4.71c-4.41,0-8.16,1.54-11.24,4.63
		c-3.09,3.09-4.63,6.89-4.63,11.41v57.54c0,6.28-1.35,11.85-4.05,16.7c-2.7,4.85-6.39,8.65-11.08,11.41
		c-4.69,2.75-10,4.13-15.96,4.13s-11.3-1.38-16.04-4.13c-4.74-2.75-8.46-6.56-11.16-11.41c-2.7-4.85-4.05-10.42-4.05-16.7V84.85
		c0-4.41-1.57-8.18-4.71-11.33c-3.14-3.14-6.86-4.71-11.16-4.71c-4.3,0-7.96,1.57-10.99,4.71c-3.03,3.14-4.55,6.92-4.55,11.33v87.79
		h-15.87V87c0-6.06,1.32-11.52,3.97-16.37c2.65-4.85,6.37-8.68,11.16-11.49c4.79-2.81,10.22-4.22,16.29-4.22
		c6.06,0,11.49,1.41,16.29,4.22c4.79,2.81,8.54,6.64,11.24,11.49c2.7,4.85,4.05,10.31,4.05,16.37v57.54c0,4.52,1.51,8.32,4.55,11.41
		c3.03,3.09,6.7,4.63,11,4.63c4.19,0,7.77-1.54,10.75-4.63c2.98-3.08,4.46-6.89,4.46-11.41V87c0-6.06,1.35-11.52,4.05-16.37
		c2.7-4.85,6.45-8.68,11.24-11.49c4.79-2.81,10.28-4.22,16.45-4.22c6.06,0,11.49,1.41,16.29,4.22c4.79,2.81,8.51,6.64,11.16,11.49
		c2.65,4.85,3.97,10.31,3.97,16.37V172.64z M1258.94,70.96h-43.98c-5.07,0-9.29,1.76-12.65,5.29c-3.36,3.53-5.04,7.83-5.04,12.9
		c0,4.85,1.74,8.99,5.21,12.4c3.47,3.42,7.74,5.13,12.81,5.13h37.53v14.05h-36.37c-5.84,0-10.58,1.9-14.22,5.7
		s-5.46,8.29-5.46,13.47c0,5.18,1.74,9.59,5.21,13.23c3.47,3.64,8.07,5.46,13.81,5.46h43.15v14.05h-45.3
		c-6.28,0-11.9-1.49-16.86-4.46c-4.96-2.98-8.82-6.97-11.57-11.99c-2.76-5.01-4.13-10.44-4.13-16.29c0-5.29,1.27-10.25,3.8-14.88
		c2.53-4.63,6.12-8.27,10.75-10.91c-4.52-2.87-8.02-6.47-10.5-10.83c-2.48-4.35-3.72-9.07-3.72-14.14c0-5.84,1.41-11.24,4.22-16.2
		c2.81-4.96,6.64-8.87,11.49-11.74c4.85-2.86,10.19-4.3,16.04-4.3h45.8V70.96z M1434.69,172.64h-15.87V84.85
		c0-4.41-1.52-8.18-4.55-11.33c-3.03-3.14-6.7-4.71-11-4.71c-4.41,0-8.16,1.54-11.24,4.63c-3.09,3.09-4.63,6.89-4.63,11.41v57.54
		c0,6.28-1.35,11.85-4.05,16.7c-2.7,4.85-6.39,8.65-11.08,11.41c-4.69,2.75-10,4.13-15.96,4.13s-11.3-1.38-16.04-4.13
		c-4.74-2.75-8.46-6.56-11.16-11.41c-2.7-4.85-4.05-10.42-4.05-16.7V84.85c0-4.41-1.57-8.18-4.71-11.33
		c-3.14-3.14-6.86-4.71-11.16-4.71c-4.3,0-7.96,1.57-10.99,4.71c-3.03,3.14-4.55,6.92-4.55,11.33v87.79h-15.87V87
		c0-6.06,1.32-11.52,3.97-16.37c2.65-4.85,6.37-8.68,11.16-11.49c4.79-2.81,10.22-4.22,16.29-4.22c6.06,0,11.49,1.41,16.29,4.22
		c4.79,2.81,8.54,6.64,11.24,11.49c2.7,4.85,4.05,10.31,4.05,16.37v57.54c0,4.52,1.51,8.32,4.55,11.41c3.03,3.09,6.7,4.63,11,4.63
		c4.19,0,7.77-1.54,10.75-4.63c2.98-3.08,4.46-6.89,4.46-11.41V87c0-6.06,1.35-11.52,4.05-16.37c2.7-4.85,6.45-8.68,11.24-11.49
		c4.79-2.81,10.28-4.22,16.45-4.22c6.06,0,11.49,1.41,16.29,4.22c4.79,2.81,8.51,6.64,11.16,11.49c2.65,4.85,3.97,10.31,3.97,16.37
		V172.64z M1566.05,145.03c-5.02,9.15-12.07,16.4-21.16,21.74c-9.09,5.35-19.59,8.02-31.5,8.02s-22.4-2.67-31.5-8.02
		c-9.09-5.35-16.15-12.59-21.16-21.74c-5.02-9.15-7.52-19.29-7.52-30.42c0-11.02,2.51-21.11,7.52-30.26
		c5.01-9.15,12.07-16.37,21.16-21.66c9.09-5.29,19.59-7.94,31.5-7.94s22.4,2.65,31.5,7.94c9.09,5.29,16.15,12.51,21.16,21.66
		c5.01,9.15,7.52,19.24,7.52,30.26C1573.57,125.75,1571.06,135.89,1566.05,145.03z M1689.64,172.64h-10.75
		c-4.19,0-7.94-1.07-11.24-3.22s-6.01-5.15-8.1-9.01l-13.89-28.27c-3.09,0.22-5.57,0.33-7.44,0.33h-29.26v40.18h-15.87V56.91h50.76
		c7.16,0,13.75,1.6,19.76,4.79c6.01,3.2,10.77,7.66,14.3,13.39c3.53,5.73,5.29,12.29,5.29,19.68c0,7.61-1.93,14.36-5.79,20.25
		c-3.86,5.9-9.15,10.33-15.87,13.31l12.4,25.13c0.88,1.76,1.87,3.06,2.98,3.88c1.1,0.83,2.59,1.24,4.46,1.24h8.27V172.64z
		 M1761.56,70.96h-22.16v87.63h22.16v14.05h-60.35v-14.05h22.32V70.96h-22.32V56.91h60.35V70.96z M1868.04,172.64l-10.09-27.94
		h-60.51l-10.25,27.94h-16.7l39.35-104.66c3.31-8.71,9.31-13.06,18.02-13.06c8.71,0,14.71,4.3,18.02,12.9l39.52,104.82H1868.04z"/>
	<path class="st0" d="M1536.04,74.76c-6.72-3.97-14.28-5.95-22.65-5.95c-8.38,0-15.96,1.98-22.73,5.95
		c-6.78,3.97-12.07,9.45-15.87,16.45c-3.8,7-5.7,14.8-5.7,23.4c0,8.71,1.9,16.56,5.7,23.56c3.8,7,9.09,12.51,15.87,16.53
		c6.78,4.03,14.36,6.04,22.73,6.04c8.38,0,15.93-2.01,22.65-6.04c6.72-4.02,12.01-9.53,15.87-16.53c3.86-7,5.79-14.85,5.79-23.56
		c0-8.6-1.93-16.39-5.79-23.4C1548.05,84.22,1542.76,78.73,1536.04,74.76z"/>
	<path class="st0" d="M1827.86,68.81c-1.1,0-1.96,0.36-2.56,1.07c-0.61,0.72-1.19,1.85-1.74,3.39l-21.16,57.37h50.76l-20.67-57.37
		C1831.38,70.3,1829.84,68.81,1827.86,68.81z"/>
</g>
</svg>
