<?xml version="1.0" encoding="utf-8"?>
<!-- Generator: Adobe Illustrator 25.2.0, SVG Export Plug-In . SVG Version: 6.00 Build 0)  -->
<svg version="1.1" id="Camada_1" xmlns="http://www.w3.org/2000/svg" xmlns:xlink="http://www.w3.org/1999/xlink" x="0px" y="0px"
	 viewBox="0 0 512 512" style="enable-background:new 0 0 512 512;" xml:space="preserve">
<style type="text/css">
	.st0{fill:#00376B;}
</style>
<g id="Grupo_284" transform="translate(0 0)">
	<path id="Caminho_45" class="st0" d="M366.14,48.55c-25.22-0.1-49.73,8.36-69.5,24.01c-16.72,13.38-30.55,30.02-40.66,48.91
		c-10.1-18.89-23.93-35.52-40.66-48.91c-19.77-15.64-44.27-24.11-69.48-24.01C74.77,48.55,21,106.76,21,183.96
		c0,83.39,66.96,140.46,168.32,226.77c17.21,14.66,36.73,31.3,57,49.09c5.54,4.84,13.8,4.84,19.33,0
		c20.29-17.74,39.74-34.37,57.02-49.09C424.02,324.37,491,267.3,491,183.96C490.91,106.76,437.32,48.55,366.14,48.55z"/>
</g>
</svg>
