<?xml version="1.0" encoding="utf-8"?>
<!-- Generator: Adobe Illustrator 25.4.1, SVG Export Plug-In . SVG Version: 6.00 Build 0)  -->
<svg version="1.1" id="Camada_1" xmlns="http://www.w3.org/2000/svg" xmlns:xlink="http://www.w3.org/1999/xlink" x="0px" y="0px"
	 viewBox="0 0 595.28 841.89" xml:space="preserve">
<style type="text/css">
	.st0{fill:#003869;}
</style>
<path class="st0" d="M246.93,429.21l-4.55,21.33h16.17l0.7-4.09c-3.57,0.08-5,0.19-9.86,0.1l1.18-5.26h9.08l0.81-3.84h-9.06
	l0.89-4.28h9.62l0.86-3.96H246.93z M328.11,427.22l-4.99,23.33h5.99c1.39-6.43,2.83-12.31,3.96-18.79h0.02l0.84,18.79h6.27
	l9.08-19.05h-0.06c-1.72,6.35-2.86,12.61-4.2,19.05h6.03l5.04-23.33h-10.29l-5.4,11.76c-0.42,0.92-0.8,1.77-1.11,2.55
	c-0.31,0.78-0.57,1.52-0.78,2.22c0.03-0.58,0.06-1.1,0.07-1.58c0.02-0.47,0.03-0.89,0.03-1.25c0-0.43-0.01-0.78-0.01-1.06
	c-0.01-0.28-0.01-0.54-0.02-0.8l-0.51-11.85H328.11z M300.32,429.21l-0.86,4.11h5.28l-3.66,17.21h6.55l3.66-17.21h5.18l0.89-4.11
	H300.32z M380.71,427.71l-0.03,0.08l0.03,0.01l0,0h0l-0.11,0.22l-1.33,3.87c-3.37-0.85-7.6-1.01-10.56,0.05
	c-6.84,2.47-7.86,12.79,0.5,13.96c0.83,0.1,2.25,0.15,3.17,0.13l1.03-4.81h-3.85l0,0h0l0.91-4.06c2.23-0.02,3.2,0.01,9.54-0.11
	c-0.95,4.44-1.63,8.4-2.58,12.85c-0.43,0.14-0.87,0.27-1.32,0.39l-0.01,0.05c-1.87,0.48-4.09,0.73-6.36,0.71c-0.11,0-0.22,0-0.34,0
	c-1.03,0-1.99-0.07-2.89-0.21c-2.47-0.31-4.58-0.98-6.45-2.05c-6.47-3.7-5.56-12.34-0.98-17.2c3.1-3.29,7.74-4.79,12.88-4.91l0.11,0
	c0.3-0.01,0.6-0.01,0.9-0.01c1.41,0,2.76,0.09,4.04,0.28c0.67,0.1,1.33,0.22,1.98,0.38C379.57,427.42,380.14,427.56,380.71,427.71
	 M282.52,429.21l-4.55,21.33h16.17l0.7-4.09c-3.57,0.08-5,0.19-9.86,0.1l1.18-5.26h9.08l0.81-3.84h-9.06l0.89-4.28h9.62l0.86-3.96
	H282.52z M245.57,424.88l-1.64,4.77c-3.85-0.97-8.6-1.16-11.98,0.06c-7.82,2.82-8.98,14.62,0.58,15.95
	c2.77,0.35,6.75,0.15,9.16-1.08l-1.37,6.14c-5.5,1.39-13.6,1.1-18.63-1.78c-7.4-4.23-6.36-14.1-1.12-19.65
	C226.14,423.39,236.79,422.54,245.57,424.88 M315.43,439.08h6.2l-0.84,3.87h-6.2L315.43,439.08z M265.01,429.21h15.32l-0.86,3.96
	h-8.88l-0.94,4.61h8.5l-0.84,3.99h-8.54l-1.83,8.77h-6.48L265.01,429.21z"/>
<path class="st0" d="M291.06,368.82c0.09-0.02,0.17-0.07,0.24-0.1c0.62-0.24,0.33-0.82-0.2-0.77c-0.61,0.06-1.26,0.2-1.86,0.32
	c-0.4,0.08-0.81,0.17-1.22,0.27c-11.98,2.88-27.86,14-22.19,30.03c5.3,11.67,18.66,15.09,29.42,15.46
	c4.49,0.16,9.88-0.23,16.06-1.55c1.3-0.28,2.3-0.63,3.55-1.43l13.88-10.11l0.48-0.35c0.52-0.35,1.1-0.16,0.82,0.62
	c-0.35,0.96-1.31,2.22-1.95,3.07c-0.53,0.7-1.12,1.36-1.86,2.07c-3.07,2.98-6.64,5.91-10.16,8.28c-1.2,0.81-2.47,1.62-3.87,2.03
	c-1.11,0.34-2.25,0.62-3.41,0.87c-8.72,1.84-18.52,1.11-26.86-1.36c-10.85-2.93-22.82-13.51-19.91-27.98
	c2.11-11.26,13.5-18.57,24.5-21.61c9.22-2.54,19.3-1.92,28.09,1.97c0.91,0.4,0.81,0.42,1.6-0.2l16.5-12.79l0.28-0.21
	c0.58-0.41,0.48-0.81,0.05-1.04c-0.24-0.13-0.5-0.25-0.74-0.37c-2.88-1.37-5.9-2.28-8.61-2.95c-0.97-0.24-1.94-0.46-2.91-0.66
	c-11.76-2.42-21.79-0.18-31.18,3.89c-2.14,0.93-4.23,2.08-6.26,3.17c-2.11,1.23-4.44,2.69-6.64,4.17c-1.08,0.72-2.09,1.46-3.1,2.16
	c-0.62,0.5-1.24-0.24-0.65-0.8c0.8-0.76,1.67-1.54,2.58-2.31c2.56-2.17,5.45-4.26,8.07-5.74c7.57-4.28,16.11-7.18,24.98-7.88
	c14.2-1.11,30.9,3.22,38.07,16.59c3.75,7,2.58,13.63-1.64,19.07c-8.82,11.35-23.9,15.06-37.76,14.81
	c-10.81-0.19-22.63-3.05-27.06-9.97c-4.8-7.94,2.23-14.32,9.01-17.85C289.8,369.33,290.42,369.08,291.06,368.82"/>
<polygon class="st0" points="251.53,469.33 252.91,462.56 255.13,469.33 257.23,469.33 259.05,460.74 257.49,460.74 256.12,467.46 
	253.88,460.74 251.77,460.74 249.95,469.33 "/>
<path class="st0" d="M247.16,476.32c0.34-0.38,0.73-0.67,1.18-0.86c0.45-0.19,0.97-0.28,1.56-0.28c0.36,0,0.71,0.04,1.05,0.13
	c0.34,0.09,0.68,0.22,1.02,0.4l0.43-1.36c-0.47-0.16-0.93-0.28-1.35-0.36c-0.43-0.08-0.83-0.12-1.2-0.12
	c-0.73,0-1.38,0.09-1.96,0.26c-0.58,0.18-1.08,0.44-1.51,0.79c-0.6,0.49-1.07,1.07-1.39,1.74c-0.32,0.67-0.48,1.39-0.48,2.16
	c0,1.23,0.37,2.2,1.1,2.91c0.74,0.71,1.74,1.07,3.01,1.07c0.35,0,0.7-0.03,1.05-0.08c0.35-0.05,0.71-0.13,1.07-0.24l0.16-1.49
	c-0.33,0.14-0.66,0.25-0.97,0.32c-0.31,0.07-0.62,0.11-0.92,0.11c-0.84,0-1.5-0.24-2-0.72c-0.5-0.48-0.74-1.12-0.74-1.94
	c0-0.44,0.08-0.88,0.24-1.32C246.67,477.02,246.89,476.64,247.16,476.32"/>
<path class="st0" d="M272,479.35l2.31-3.99l0.58,3.99H272z M273.48,474.06l-5.17,8.58h1.81l1.19-2.03h3.74l0.33,2.03h1.68
	l-1.49-8.58H273.48z"/>
<path class="st0" d="M269.25,461.97h0.96c0.44,0,0.78,0.09,1.02,0.27c0.24,0.18,0.36,0.44,0.36,0.77c0,0.48-0.19,0.84-0.58,1.09
	c-0.38,0.25-0.94,0.37-1.68,0.37c-0.12,0-0.3-0.01-0.56-0.03h-0.03L269.25,461.97z M267.71,469.33l0.77-3.64h0.31
	c0.5,0,0.84,0.06,1.03,0.17c0.19,0.11,0.32,0.31,0.38,0.61l0.65,2.86h1.67l-0.65-2.98c-0.09-0.37-0.2-0.65-0.34-0.84
	c-0.14-0.19-0.33-0.35-0.58-0.47c0.76-0.07,1.34-0.3,1.76-0.69c0.42-0.39,0.62-0.9,0.62-1.54c0-0.68-0.23-1.2-0.7-1.54
	c-0.47-0.35-1.15-0.52-2.06-0.52h-2.72l-1.82,8.59H267.71z"/>
<path class="st0" d="M242.21,474.06l-1.06,4.82c-0.21,0.97-0.48,1.66-0.82,2.07c-0.34,0.41-0.79,0.62-1.35,0.62
	c-0.46,0-0.82-0.15-1.1-0.44c-0.28-0.3-0.42-0.69-0.42-1.17c0-0.16,0.01-0.32,0.03-0.48c0.02-0.16,0.05-0.33,0.09-0.49l1.05-4.92
	h-1.71l-1,4.64c-0.05,0.24-0.09,0.48-0.12,0.71c-0.03,0.23-0.04,0.45-0.04,0.65c0,0.86,0.27,1.54,0.82,2.04
	c0.54,0.5,1.29,0.75,2.23,0.75c1.1,0,1.97-0.29,2.62-0.88c0.65-0.59,1.1-1.5,1.36-2.74l1.08-5.16H242.21z"/>
<polygon class="st0" points="248.37,469.33 248.64,468.08 244.87,468.08 245.43,465.44 248.85,465.44 249.1,464.22 245.69,464.22 
	246.17,461.98 249.78,461.98 250.06,460.74 244.73,460.74 242.9,469.33 "/>
<path class="st0" d="M239.44,469.51c0.35,0,0.7-0.03,1.05-0.08c0.35-0.05,0.71-0.13,1.07-0.23l0.16-1.49
	c-0.33,0.15-0.66,0.25-0.97,0.33c-0.31,0.07-0.62,0.1-0.92,0.1c-0.84,0-1.5-0.24-2-0.72c-0.5-0.48-0.74-1.12-0.74-1.94
	c0-0.44,0.08-0.88,0.24-1.32c0.16-0.44,0.38-0.82,0.65-1.14c0.34-0.38,0.73-0.67,1.18-0.85c0.45-0.19,0.97-0.28,1.56-0.28
	c0.36,0,0.71,0.04,1.05,0.13c0.34,0.09,0.68,0.22,1.02,0.4l0.43-1.36c-0.47-0.16-0.93-0.28-1.35-0.36c-0.43-0.08-0.83-0.12-1.2-0.12
	c-0.73,0-1.38,0.09-1.96,0.26c-0.58,0.17-1.09,0.44-1.51,0.79c-0.6,0.49-1.07,1.07-1.39,1.74c-0.32,0.67-0.48,1.39-0.48,2.16
	c0,1.23,0.37,2.2,1.11,2.91C237.16,469.15,238.17,469.51,239.44,469.51"/>
<path class="st0" d="M232.36,479.37c-0.24,0.54-0.55,0.97-0.94,1.28c-0.29,0.23-0.62,0.41-1.01,0.52c-0.39,0.11-0.85,0.17-1.38,0.17
	h-0.99l1.26-6h0.98c0.79,0,1.39,0.2,1.81,0.61c0.42,0.41,0.62,1.01,0.62,1.79C232.72,478.29,232.6,478.83,232.36,479.37
	 M230.25,474.06h-2.4l-1.83,8.58h2.96c0.77,0,1.41-0.06,1.94-0.19c0.53-0.13,1.02-0.33,1.49-0.62c0.64-0.38,1.14-0.94,1.52-1.67
	c0.38-0.73,0.56-1.52,0.56-2.38c0-1.24-0.35-2.17-1.07-2.79C232.7,474.37,231.65,474.06,230.25,474.06"/>
<polygon class="st0" points="225.84,475.29 226.11,474.06 220.78,474.06 218.95,482.64 224.42,482.64 224.69,481.39 220.92,481.39 
	221.48,478.76 224.91,478.76 225.15,477.53 221.74,477.53 222.22,475.29 "/>
<polygon class="st0" points="340.97,468.02 337.42,468.02 338.97,460.75 337.25,460.75 335.42,469.33 340.7,469.33 "/>
<path class="st0" d="M331.64,462.04l0.58,3.99h-2.89L331.64,462.04z M327.44,469.33l1.19-2.03h3.74l0.33,2.03h1.68l-1.49-8.59h-2.09
	l-5.17,8.59H327.44z"/>
<polygon class="st0" points="317.29,468.08 313.52,468.08 314.08,465.44 317.51,465.44 317.75,464.22 314.34,464.22 314.82,461.98 
	318.44,461.98 318.71,460.74 313.39,460.74 311.55,469.33 317.02,469.33 "/>
<path class="st0" d="M323.6,464.09c-0.38,0.25-0.94,0.37-1.68,0.37c-0.12,0-0.3-0.01-0.56-0.03h-0.03l0.51-2.47h0.96
	c0.44,0,0.78,0.09,1.02,0.27c0.24,0.18,0.36,0.43,0.36,0.77C324.17,463.48,323.98,463.85,323.6,464.09 M325.92,462.81
	c0-0.68-0.23-1.2-0.7-1.54c-0.47-0.35-1.15-0.52-2.06-0.52h-2.72l-1.82,8.59h1.68l0.77-3.64h0.31c0.5,0,0.84,0.05,1.04,0.17
	c0.19,0.11,0.32,0.31,0.38,0.61l0.65,2.86h1.67l-0.65-2.98c-0.08-0.37-0.2-0.65-0.34-0.84c-0.14-0.19-0.33-0.35-0.58-0.47
	c0.76-0.07,1.34-0.3,1.76-0.69C325.71,463.96,325.92,463.45,325.92,462.81"/>
<path class="st0" d="M331.11,478.98c-0.15,0.51-0.37,0.95-0.64,1.31c-0.3,0.41-0.62,0.71-0.95,0.91c-0.33,0.2-0.69,0.29-1.09,0.29
	c-0.59,0-1.05-0.2-1.39-0.61c-0.34-0.41-0.51-0.97-0.51-1.68c0-0.55,0.09-1.1,0.25-1.62c0.17-0.53,0.41-1,0.71-1.4
	c0.25-0.33,0.55-0.59,0.89-0.78c0.34-0.18,0.68-0.27,1.04-0.27c0.6,0,1.06,0.2,1.4,0.6c0.34,0.4,0.51,0.96,0.51,1.68
	C331.34,477.95,331.27,478.47,331.11,478.98 M329.51,473.87c-0.63,0-1.22,0.12-1.77,0.35c-0.55,0.23-1.03,0.56-1.44,1
	c-0.49,0.51-0.86,1.1-1.13,1.77c-0.26,0.67-0.4,1.37-0.4,2.09c0,1.14,0.32,2.05,0.95,2.73c0.63,0.67,1.49,1.01,2.57,1.01
	c0.65,0,1.26-0.11,1.81-0.33c0.55-0.22,1.04-0.54,1.45-0.96c0.5-0.51,0.89-1.12,1.16-1.81c0.27-0.7,0.4-1.45,0.4-2.25
	c0-1.14-0.32-2.02-0.94-2.65C331.53,474.19,330.65,473.87,329.51,473.87"/>
<polygon class="st0" points="335.73,474.06 333.9,482.64 339.18,482.64 339.46,481.33 335.9,481.33 337.45,474.06 "/>
<path class="st0" d="M350.75,462.02h0.98c0.79,0,1.39,0.2,1.81,0.61c0.42,0.41,0.62,1.01,0.62,1.79c0,0.55-0.12,1.1-0.36,1.64
	c-0.24,0.54-0.55,0.97-0.94,1.28c-0.29,0.23-0.62,0.41-1.01,0.52c-0.39,0.11-0.85,0.17-1.38,0.17h-0.99L350.75,462.02z
	 M352.36,469.14c0.53-0.13,1.02-0.33,1.49-0.61c0.64-0.39,1.14-0.94,1.52-1.67c0.38-0.73,0.56-1.52,0.56-2.38
	c0-1.24-0.35-2.17-1.07-2.79c-0.71-0.63-1.76-0.94-3.16-0.94h-2.41l-1.83,8.59h2.96C351.19,469.33,351.83,469.27,352.36,469.14"/>
<path class="st0" d="M282.05,475.41c0.33-0.18,0.68-0.27,1.04-0.27c0.6,0,1.06,0.2,1.4,0.61c0.34,0.4,0.51,0.96,0.51,1.68
	c0,0.53-0.08,1.05-0.23,1.56c-0.15,0.51-0.36,0.95-0.63,1.31c-0.3,0.41-0.62,0.71-0.95,0.91c-0.33,0.2-0.7,0.29-1.09,0.29
	c-0.59,0-1.05-0.2-1.39-0.61c-0.34-0.41-0.51-0.97-0.51-1.68c0-0.55,0.09-1.1,0.25-1.62c0.17-0.53,0.41-1,0.71-1.4
	C281.42,475.85,281.71,475.59,282.05,475.41 M279.95,475.22c-0.49,0.51-0.86,1.1-1.13,1.77c-0.26,0.67-0.4,1.37-0.4,2.09
	c0,1.14,0.32,2.05,0.95,2.73c0.63,0.67,1.49,1.01,2.57,1.01c0.65,0,1.26-0.11,1.81-0.33c0.55-0.22,1.04-0.54,1.45-0.96
	c0.5-0.51,0.89-1.12,1.16-1.81s0.4-1.45,0.4-2.25c0-1.14-0.32-2.02-0.95-2.65c-0.63-0.63-1.52-0.95-2.66-0.95
	c-0.63,0-1.22,0.12-1.77,0.35C280.85,474.45,280.36,474.78,279.95,475.22"/>
<path class="st0" d="M272.74,473.03h0.63c0.05-0.17,0.12-0.3,0.21-0.39c0.09-0.09,0.21-0.13,0.35-0.13c0.05,0,0.1,0.01,0.16,0.02
	c0.06,0.01,0.13,0.03,0.19,0.05l0.45,0.13c0.12,0.03,0.21,0.05,0.28,0.07s0.14,0.02,0.2,0.02c0.32,0,0.58-0.11,0.79-0.33
	c0.21-0.22,0.39-0.57,0.52-1.04h-0.64c-0.06,0.18-0.14,0.31-0.23,0.39c-0.1,0.08-0.22,0.12-0.37,0.12c-0.05,0-0.1,0-0.15-0.01
	c-0.05-0.01-0.11-0.03-0.17-0.04l-0.46-0.15c-0.08-0.02-0.17-0.04-0.25-0.05c-0.08-0.01-0.16-0.02-0.24-0.02
	c-0.31,0-0.57,0.11-0.79,0.34C273.04,472.21,272.87,472.55,272.74,473.03"/>
<polygon class="st0" points="300.85,469.33 301.12,468.08 297.35,468.08 297.91,465.44 301.34,465.44 301.58,464.22 298.17,464.22 
	298.65,461.98 302.27,461.98 302.54,460.74 297.21,460.74 295.38,469.33 "/>
<path class="st0" d="M276.27,464.27c0.17-0.53,0.41-1,0.71-1.4c0.25-0.33,0.55-0.59,0.89-0.78s0.68-0.27,1.04-0.27
	c0.6,0,1.06,0.2,1.4,0.6c0.34,0.4,0.51,0.96,0.51,1.68c0,0.53-0.08,1.05-0.23,1.56c-0.15,0.51-0.37,0.95-0.63,1.31
	c-0.3,0.41-0.62,0.71-0.95,0.91c-0.33,0.2-0.7,0.29-1.09,0.29c-0.59,0-1.05-0.2-1.39-0.61c-0.34-0.41-0.5-0.97-0.5-1.68
	C276.02,465.34,276.1,464.8,276.27,464.27 M277.76,469.51c0.65,0,1.26-0.11,1.81-0.33c0.55-0.22,1.04-0.54,1.45-0.96
	c0.5-0.51,0.89-1.11,1.16-1.81c0.27-0.7,0.4-1.45,0.4-2.25c0-1.14-0.32-2.02-0.95-2.65c-0.63-0.63-1.52-0.95-2.66-0.95
	c-0.63,0-1.22,0.12-1.77,0.35c-0.55,0.23-1.03,0.56-1.44,1c-0.49,0.51-0.86,1.1-1.13,1.77c-0.26,0.67-0.4,1.37-0.4,2.09
	c0,1.14,0.32,2.05,0.95,2.73C275.83,469.17,276.68,469.51,277.76,469.51"/>
<polygon class="st0" points="347.77,471.08 346.28,471.08 344.85,473.27 345.63,473.27 "/>
<polygon class="st0" points="291.5,465.55 294.73,465.55 294.99,464.31 291.76,464.31 292.26,461.99 295.62,461.99 295.9,460.74 
	290.82,460.74 289,469.33 290.7,469.33 "/>
<path class="st0" d="M355.68,475.17c0.41,0,0.79,0.04,1.15,0.13c0.36,0.08,0.71,0.21,1.05,0.39l0.41-1.37
	c-0.45-0.15-0.9-0.27-1.34-0.34c-0.44-0.07-0.88-0.11-1.33-0.11c-0.8,0-1.53,0.1-2.17,0.3c-0.65,0.2-1.2,0.5-1.67,0.89
	c-0.55,0.47-0.97,1.02-1.26,1.67c-0.29,0.64-0.44,1.33-0.44,2.07c0,0.7,0.13,1.34,0.4,1.91c0.27,0.57,0.66,1.03,1.17,1.4
	c0.35,0.24,0.73,0.42,1.15,0.53c0.42,0.11,0.98,0.16,1.68,0.16c0.46,0,0.9-0.03,1.31-0.1c0.41-0.07,0.81-0.17,1.19-0.3l0.97-4.61
	h-3.3l-0.27,1.23h1.68l-0.48,2.31c-0.18,0.05-0.37,0.09-0.58,0.12c-0.2,0.03-0.42,0.04-0.65,0.04c-0.76,0-1.37-0.25-1.83-0.75
	c-0.46-0.5-0.69-1.16-0.69-1.98c0-1.07,0.35-1.93,1.06-2.6C353.61,475.5,354.54,475.17,355.68,475.17"/>
<path class="st0" d="M332.68,490.72c-0.38,0.25-0.94,0.37-1.68,0.37c-0.12,0-0.3-0.01-0.56-0.02h-0.03l0.51-2.48h0.96
	c0.44,0,0.78,0.09,1.02,0.27s0.36,0.43,0.36,0.77C333.26,490.11,333.07,490.48,332.68,490.72 M335.01,489.44
	c0-0.68-0.23-1.19-0.7-1.54s-1.16-0.52-2.06-0.52h-2.72l-1.82,8.59h1.68l0.77-3.64h0.31c0.5,0,0.84,0.06,1.04,0.17
	c0.19,0.11,0.32,0.31,0.38,0.61l0.65,2.86h1.67l-0.65-2.97c-0.09-0.37-0.2-0.65-0.34-0.84c-0.14-0.19-0.33-0.35-0.58-0.47
	c0.76-0.07,1.35-0.3,1.76-0.69C334.8,490.59,335.01,490.08,335.01,489.44"/>
<path class="st0" d="M338.41,492.67l2.31-3.99l0.58,3.99H338.41z M339.89,487.37l-5.17,8.59h1.81l1.19-2.03h3.75l0.33,2.03h1.68
	l-1.49-8.59H339.89z"/>
<path class="st0" d="M317.52,488.48c0.41,0,0.79,0.04,1.15,0.13c0.36,0.08,0.71,0.21,1.05,0.39l0.41-1.37
	c-0.45-0.15-0.9-0.27-1.34-0.34c-0.44-0.07-0.88-0.11-1.33-0.11c-0.8,0-1.53,0.1-2.17,0.3c-0.65,0.2-1.2,0.5-1.67,0.89
	c-0.55,0.47-0.97,1.02-1.26,1.67c-0.29,0.64-0.44,1.33-0.44,2.07c0,0.7,0.13,1.34,0.4,1.91c0.27,0.57,0.66,1.03,1.17,1.4
	c0.35,0.25,0.73,0.42,1.15,0.53c0.42,0.11,0.98,0.16,1.68,0.16c0.46,0,0.9-0.03,1.31-0.1c0.41-0.07,0.81-0.17,1.19-0.3l0.97-4.61
	h-3.3l-0.27,1.23h1.68l-0.48,2.31c-0.18,0.05-0.37,0.09-0.58,0.12c-0.2,0.03-0.42,0.04-0.65,0.05c-0.76,0-1.37-0.25-1.83-0.75
	c-0.46-0.5-0.69-1.16-0.69-1.98c0-1.07,0.35-1.93,1.06-2.6C315.46,488.82,316.38,488.48,317.52,488.48"/>
<polygon class="st0" points="327.52,488.61 327.79,487.37 322.47,487.37 320.64,495.96 326.11,495.96 326.38,494.71 322.61,494.71 
	323.16,492.07 326.59,492.07 326.84,490.85 323.42,490.85 323.91,488.61 "/>
<path class="st0" d="M345.4,481.2c-0.33,0.2-0.7,0.29-1.09,0.29c-0.59,0-1.05-0.2-1.39-0.61c-0.34-0.41-0.51-0.97-0.51-1.68
	c0-0.55,0.08-1.1,0.25-1.62c0.17-0.53,0.41-1,0.71-1.4c0.25-0.33,0.55-0.59,0.89-0.78c0.34-0.18,0.68-0.27,1.04-0.27
	c0.6,0,1.06,0.2,1.4,0.6c0.34,0.4,0.51,0.96,0.51,1.68c0,0.53-0.08,1.05-0.23,1.56c-0.15,0.51-0.37,0.95-0.64,1.31
	C346.04,480.7,345.73,481.01,345.4,481.2 M347.42,481.53c0.5-0.51,0.89-1.11,1.16-1.81c0.27-0.7,0.4-1.45,0.4-2.25
	c0-1.14-0.32-2.02-0.94-2.65c-0.63-0.63-1.52-0.95-2.66-0.95c-0.63,0-1.22,0.12-1.77,0.35c-0.55,0.23-1.03,0.56-1.44,1
	c-0.49,0.51-0.86,1.1-1.13,1.77c-0.26,0.67-0.4,1.37-0.4,2.09c0,1.15,0.32,2.05,0.95,2.73c0.63,0.67,1.49,1.01,2.57,1.01
	c0.65,0,1.26-0.11,1.81-0.33C346.52,482.27,347.01,481.95,347.42,481.53"/>
<path class="st0" d="M249.63,492.68c-0.24,0.54-0.55,0.97-0.94,1.28c-0.29,0.23-0.62,0.41-1.01,0.51c-0.39,0.11-0.85,0.17-1.38,0.17
	h-0.99l1.27-6h0.98c0.79,0,1.39,0.21,1.81,0.61c0.42,0.41,0.62,1,0.62,1.79C249.99,491.6,249.87,492.14,249.63,492.68
	 M247.52,487.37h-2.4l-1.83,8.59h2.96c0.76,0,1.41-0.06,1.94-0.19c0.53-0.13,1.02-0.33,1.49-0.62c0.64-0.38,1.14-0.94,1.52-1.67
	c0.38-0.73,0.56-1.52,0.56-2.38c0-1.24-0.35-2.17-1.07-2.79C249.97,487.69,248.92,487.37,247.52,487.37"/>
<path class="st0" d="M365.68,476.32c0.34-0.38,0.73-0.67,1.18-0.86c0.45-0.19,0.97-0.28,1.56-0.28c0.36,0,0.71,0.04,1.05,0.13
	c0.34,0.09,0.68,0.22,1.02,0.4l0.43-1.36c-0.47-0.16-0.92-0.28-1.35-0.36c-0.43-0.08-0.83-0.12-1.2-0.12
	c-0.73,0-1.38,0.09-1.96,0.26c-0.58,0.18-1.08,0.44-1.51,0.79c-0.6,0.49-1.07,1.07-1.39,1.74c-0.32,0.67-0.48,1.39-0.48,2.16
	c0,1.23,0.37,2.2,1.11,2.91c0.74,0.71,1.74,1.07,3.02,1.07c0.35,0,0.7-0.03,1.05-0.08c0.35-0.05,0.71-0.13,1.07-0.24l0.16-1.49
	c-0.33,0.14-0.66,0.25-0.97,0.32c-0.31,0.07-0.62,0.11-0.92,0.11c-0.84,0-1.5-0.24-2-0.72c-0.5-0.48-0.74-1.12-0.74-1.94
	c0-0.44,0.08-0.88,0.24-1.32C365.19,477.02,365.41,476.64,365.68,476.32"/>
<path class="st0" d="M313.65,482.51l0.16-1.49c-0.33,0.14-0.66,0.25-0.97,0.32c-0.31,0.07-0.62,0.11-0.92,0.11
	c-0.84,0-1.5-0.24-2-0.72c-0.49-0.48-0.74-1.12-0.74-1.94c0-0.44,0.08-0.88,0.24-1.32c0.16-0.44,0.38-0.82,0.65-1.14
	c0.34-0.38,0.73-0.67,1.18-0.86c0.45-0.19,0.97-0.28,1.56-0.28c0.36,0,0.71,0.04,1.05,0.13c0.34,0.08,0.68,0.22,1.02,0.4l0.43-1.36
	c-0.47-0.16-0.93-0.28-1.35-0.36c-0.43-0.08-0.83-0.12-1.2-0.12c-0.73,0-1.38,0.09-1.96,0.26c-0.58,0.17-1.08,0.44-1.51,0.79
	c-0.61,0.49-1.07,1.07-1.39,1.74c-0.32,0.67-0.48,1.39-0.48,2.16c0,1.22,0.37,2.19,1.11,2.91c0.74,0.71,1.74,1.07,3.01,1.07
	c0.35,0,0.7-0.03,1.05-0.08C312.93,482.69,313.29,482.61,313.65,482.51"/>
<polygon class="st0" points="344.39,495.96 346.09,495.96 347.91,487.37 346.21,487.37 "/>
<path class="st0" d="M373.57,479.35l2.31-3.99l0.58,3.99H373.57z M377.14,474.06h-2.09l-5.17,8.58h1.81l1.19-2.03h3.74l0.33,2.03
	h1.68L377.14,474.06z"/>
<polygon class="st0" points="359.84,461.98 363.45,461.98 363.72,460.75 358.4,460.75 356.57,469.33 362.04,469.33 362.31,468.08 
	358.54,468.08 359.1,465.45 362.52,465.45 362.77,464.22 359.36,464.22 "/>
<path class="st0" d="M352.74,487.21c-1.06,0-1.9,0.23-2.52,0.7c-0.62,0.47-0.93,1.09-0.93,1.86c0,0.39,0.1,0.76,0.3,1.11
	c0.2,0.35,0.49,0.65,0.87,0.91c0.11,0.07,0.27,0.18,0.48,0.31c0.88,0.57,1.33,1.07,1.33,1.52c0,0.36-0.16,0.64-0.48,0.86
	c-0.32,0.22-0.75,0.33-1.29,0.33c-0.37,0-0.73-0.05-1.09-0.14c-0.35-0.09-0.7-0.23-1.03-0.41l-0.4,1.38
	c0.36,0.16,0.74,0.28,1.13,0.35c0.4,0.08,0.81,0.12,1.25,0.12c1.15,0,2.06-0.26,2.73-0.78c0.67-0.52,1.01-1.22,1.01-2.08
	c0-0.27-0.04-0.52-0.13-0.76c-0.09-0.24-0.22-0.47-0.4-0.69c-0.2-0.25-0.73-0.64-1.56-1.17l-0.2-0.12c-0.26-0.17-0.45-0.33-0.57-0.5
	c-0.12-0.17-0.18-0.36-0.18-0.55c0-0.3,0.14-0.54,0.42-0.72c0.28-0.18,0.66-0.27,1.12-0.27c0.34,0,0.67,0.04,0.98,0.11
	c0.32,0.07,0.64,0.19,0.95,0.35l0.43-1.31c-0.35-0.13-0.71-0.23-1.08-0.3C353.53,487.24,353.14,487.21,352.74,487.21"/>
<polygon class="st0" points="358.81,482.64 360.51,482.64 362.33,474.06 360.63,474.06 "/>
<polygon class="st0" points="324.1,474.06 322.54,474.06 321.17,480.78 318.93,474.06 316.83,474.06 315.01,482.64 316.58,482.64 
	317.97,475.88 320.18,482.64 322.28,482.64 "/>
<polygon class="st0" points="270.3,494.03 269.59,487.37 266.96,487.37 265.14,495.96 266.71,495.96 268.24,488.57 269.14,495.96 
	270.67,495.96 274.68,488.56 273.1,495.96 274.68,495.96 276.53,487.37 273.82,487.37 "/>
<path class="st0" d="M265.76,482.64l-0.06,0.17c0.31,0,0.61-0.02,0.92-0.07c0.35-0.05,0.71-0.13,1.07-0.24l0.16-1.49
	c-0.33,0.15-0.66,0.25-0.97,0.32c-0.31,0.07-0.62,0.11-0.92,0.11c-0.84,0-1.5-0.24-2-0.72c-0.5-0.48-0.74-1.12-0.74-1.94
	c0-0.44,0.08-0.88,0.24-1.32c0.16-0.44,0.38-0.82,0.65-1.14c0.34-0.38,0.73-0.67,1.18-0.86c0.45-0.19,0.97-0.28,1.56-0.28
	c0.36,0,0.71,0.04,1.05,0.13c0.34,0.09,0.68,0.22,1.02,0.4l0.43-1.36c-0.47-0.16-0.93-0.28-1.35-0.36c-0.43-0.08-0.83-0.12-1.2-0.12
	c-0.73,0-1.38,0.09-1.96,0.26c-0.58,0.18-1.08,0.44-1.51,0.79c-0.6,0.49-1.07,1.07-1.39,1.75c-0.32,0.67-0.48,1.39-0.48,2.16
	c0,1.23,0.37,2.19,1.11,2.91c0.65,0.63,1.51,0.96,2.58,1.04l0.05-0.14H265.76z"/>
<path class="st0" d="M266.53,485.22c0.28-0.23,0.42-0.55,0.42-0.97c0-0.33-0.12-0.58-0.35-0.75c-0.23-0.18-0.57-0.26-1-0.26h-0.05
	l0.15-0.43c-0.04,0-0.08,0.01-0.13,0.01c-0.15,0-0.29-0.02-0.44-0.03l-0.37,1.07h0.22c0.36,0,0.62,0.04,0.77,0.11
	c0.15,0.07,0.22,0.2,0.22,0.37c0,0.16-0.06,0.28-0.19,0.37c-0.13,0.09-0.3,0.14-0.52,0.14c-0.2,0-0.42-0.02-0.65-0.07
	c-0.23-0.05-0.46-0.12-0.7-0.22l-0.26,0.67c0.37,0.11,0.69,0.2,0.96,0.25c0.27,0.05,0.52,0.08,0.74,0.08
	C265.87,485.56,266.26,485.45,266.53,485.22"/>
<polygon class="st0" points="262.51,469.33 264.05,462.02 266.39,462.02 266.66,460.74 260.31,460.74 260.04,462.02 262.33,462.02 
	260.78,469.33 "/>
<path class="st0" d="M255.05,479.35l2.31-3.99l0.58,3.99H255.05z M256.53,474.06l-5.17,8.58h1.81l1.19-2.03h3.75l0.33,2.03h1.68
	l-1.49-8.58H256.53z"/>
<polygon class="st0" points="252.39,495.96 257.86,495.96 258.13,494.71 254.36,494.71 254.92,492.07 258.35,492.07 258.59,490.85 
	255.18,490.85 255.66,488.61 259.27,488.61 259.55,487.37 254.22,487.37 "/>
<polygon class="st0" points="287.99,487.37 286.62,494.09 284.38,487.37 282.28,487.37 280.46,495.96 282.03,495.96 283.42,489.19 
	285.63,495.96 287.73,495.96 289.55,487.37 "/>
<polygon class="st0" points="300.58,474.06 294.23,474.06 293.96,475.33 296.25,475.33 294.7,482.64 296.42,482.64 297.97,475.33 
	300.31,475.33 "/>
<path class="st0" d="M303.26,487.21c-1.06,0-1.9,0.23-2.52,0.7c-0.62,0.47-0.93,1.09-0.93,1.86c0,0.39,0.1,0.76,0.3,1.11
	c0.2,0.35,0.49,0.65,0.87,0.91c0.11,0.07,0.27,0.18,0.48,0.31c0.88,0.57,1.33,1.07,1.33,1.52c0,0.36-0.16,0.64-0.48,0.86
	c-0.32,0.22-0.75,0.33-1.29,0.33c-0.37,0-0.73-0.05-1.09-0.14c-0.35-0.09-0.7-0.23-1.03-0.41l-0.4,1.38
	c0.36,0.16,0.74,0.28,1.13,0.35c0.4,0.08,0.81,0.12,1.25,0.12c1.15,0,2.06-0.26,2.73-0.78c0.67-0.52,1.01-1.22,1.01-2.08
	c0-0.27-0.04-0.52-0.13-0.76c-0.09-0.24-0.22-0.47-0.4-0.69c-0.21-0.25-0.73-0.64-1.56-1.17l-0.2-0.12
	c-0.26-0.17-0.45-0.33-0.57-0.5c-0.12-0.17-0.18-0.36-0.18-0.55c0-0.3,0.14-0.54,0.42-0.72c0.28-0.18,0.66-0.27,1.12-0.27
	c0.34,0,0.67,0.04,0.98,0.11c0.32,0.07,0.64,0.19,0.95,0.35l0.43-1.31c-0.35-0.13-0.71-0.23-1.08-0.3
	C304.04,487.24,303.66,487.21,303.26,487.21"/>
<polygon class="st0" points="299.92,482.64 305.39,482.64 305.66,481.4 301.89,481.4 302.45,478.76 305.88,478.76 306.12,477.53 
	302.71,477.53 303.19,475.29 306.81,475.29 307.08,474.06 301.76,474.06 "/>
<path class="st0" d="M307.85,467.34c-0.29,0.23-0.62,0.41-1.01,0.52c-0.39,0.11-0.85,0.17-1.38,0.17h-0.99l1.27-6h0.98
	c0.79,0,1.39,0.2,1.81,0.61c0.42,0.41,0.62,1.01,0.62,1.79c0,0.55-0.12,1.1-0.36,1.64C308.55,466.6,308.24,467.02,307.85,467.34
	 M310.35,466.86c0.38-0.73,0.56-1.52,0.56-2.38c0-1.24-0.36-2.17-1.07-2.79c-0.71-0.63-1.77-0.94-3.16-0.94h-2.4l-1.83,8.59h2.96
	c0.76,0,1.41-0.07,1.94-0.19c0.53-0.13,1.02-0.33,1.49-0.61C309.47,468.14,309.98,467.58,310.35,466.86"/>
<polygon class="st0" points="276.68,495.96 278.38,495.96 280.2,487.37 278.5,487.37 "/>
<path class="st0" d="M292.71,492.67l2.31-3.99l0.58,3.99H292.71z M294.19,487.37l-5.17,8.59h1.81l1.19-2.03h3.74l0.33,2.03h1.68
	l-1.49-8.59H294.19z"/>
</svg>
